<mxfile host="app.diagrams.net" agent="Mozilla/5.0 (Windows NT 10.0; Win64; x64) AppleWebKit/537.36 (KHTML, like Gecko) Chrome/141.0.0.0 Safari/537.36 Edg/141.0.0.0" version="28.2.7">
  <diagram name="Page-1" id="d1LJ4tu5XLPS_ZyBsTDo">
    <mxGraphModel dx="940" dy="826" grid="1" gridSize="10" guides="1" tooltips="1" connect="1" arrows="1" fold="1" page="1" pageScale="1" pageWidth="827" pageHeight="1169" math="0" shadow="0">
      <root>
        <mxCell id="0" />
        <mxCell id="1" parent="0" />
        <mxCell id="dFMfm439-QXqqePCThza-4" style="edgeStyle=orthogonalEdgeStyle;rounded=0;orthogonalLoop=1;jettySize=auto;html=1;exitX=0.5;exitY=1;exitDx=0;exitDy=0;entryX=0.5;entryY=0;entryDx=0;entryDy=0;" parent="1" source="dFMfm439-QXqqePCThza-1" target="dFMfm439-QXqqePCThza-2" edge="1">
          <mxGeometry relative="1" as="geometry" />
        </mxCell>
        <mxCell id="dFMfm439-QXqqePCThza-14" style="edgeStyle=orthogonalEdgeStyle;rounded=0;orthogonalLoop=1;jettySize=auto;html=1;exitX=1;exitY=0.5;exitDx=0;exitDy=0;entryX=0.5;entryY=0;entryDx=0;entryDy=0;" parent="1" source="dFMfm439-QXqqePCThza-1" target="dFMfm439-QXqqePCThza-13" edge="1">
          <mxGeometry relative="1" as="geometry" />
        </mxCell>
        <mxCell id="6AtPc1Cg2jlrS7tVkztT-3" style="edgeStyle=orthogonalEdgeStyle;rounded=0;orthogonalLoop=1;jettySize=auto;html=1;exitX=0;exitY=0.5;exitDx=0;exitDy=0;entryX=0.5;entryY=0;entryDx=0;entryDy=0;" edge="1" parent="1" source="dFMfm439-QXqqePCThza-1" target="6AtPc1Cg2jlrS7tVkztT-1">
          <mxGeometry relative="1" as="geometry" />
        </mxCell>
        <mxCell id="dFMfm439-QXqqePCThza-1" value="sysapi-headers" style="rounded=0;whiteSpace=wrap;html=1;" parent="1" vertex="1">
          <mxGeometry x="320" y="60" width="120" height="60" as="geometry" />
        </mxCell>
        <mxCell id="dFMfm439-QXqqePCThza-9" style="edgeStyle=orthogonalEdgeStyle;rounded=0;orthogonalLoop=1;jettySize=auto;html=1;exitX=0.5;exitY=1;exitDx=0;exitDy=0;entryX=0.5;entryY=0;entryDx=0;entryDy=0;" parent="1" source="dFMfm439-QXqqePCThza-2" target="dFMfm439-QXqqePCThza-8" edge="1">
          <mxGeometry relative="1" as="geometry" />
        </mxCell>
        <mxCell id="dFMfm439-QXqqePCThza-12" style="edgeStyle=orthogonalEdgeStyle;rounded=0;orthogonalLoop=1;jettySize=auto;html=1;exitX=0.5;exitY=1;exitDx=0;exitDy=0;entryX=0.5;entryY=0;entryDx=0;entryDy=0;" parent="1" source="dFMfm439-QXqqePCThza-2" target="dFMfm439-QXqqePCThza-3" edge="1">
          <mxGeometry relative="1" as="geometry" />
        </mxCell>
        <mxCell id="dFMfm439-QXqqePCThza-21" style="edgeStyle=orthogonalEdgeStyle;rounded=0;orthogonalLoop=1;jettySize=auto;html=1;exitX=1;exitY=0.5;exitDx=0;exitDy=0;entryX=0.25;entryY=0;entryDx=0;entryDy=0;" parent="1" source="dFMfm439-QXqqePCThza-2" target="dFMfm439-QXqqePCThza-18" edge="1">
          <mxGeometry relative="1" as="geometry" />
        </mxCell>
        <mxCell id="dFMfm439-QXqqePCThza-2" value="sysapi" style="rounded=0;whiteSpace=wrap;html=1;" parent="1" vertex="1">
          <mxGeometry x="320" y="320" width="120" height="60" as="geometry" />
        </mxCell>
        <mxCell id="dFMfm439-QXqqePCThza-26" style="edgeStyle=orthogonalEdgeStyle;rounded=0;orthogonalLoop=1;jettySize=auto;html=1;exitX=0.5;exitY=1;exitDx=0;exitDy=0;entryX=0.5;entryY=0;entryDx=0;entryDy=0;" parent="1" source="dFMfm439-QXqqePCThza-3" target="dFMfm439-QXqqePCThza-25" edge="1">
          <mxGeometry relative="1" as="geometry" />
        </mxCell>
        <mxCell id="dFMfm439-QXqqePCThza-3" value="system" style="rounded=0;whiteSpace=wrap;html=1;" parent="1" vertex="1">
          <mxGeometry x="320" y="530" width="120" height="60" as="geometry" />
        </mxCell>
        <mxCell id="dFMfm439-QXqqePCThza-5" value="ABI constants + header symbols" style="text;html=1;whiteSpace=wrap;strokeColor=none;fillColor=none;align=center;verticalAlign=middle;rounded=0;" parent="1" vertex="1">
          <mxGeometry x="390" y="130" width="200" height="30" as="geometry" />
        </mxCell>
        <mxCell id="dFMfm439-QXqqePCThza-7" value="os api syscall wrappers" style="text;html=1;whiteSpace=wrap;strokeColor=none;fillColor=none;align=center;verticalAlign=middle;rounded=0;" parent="1" vertex="1">
          <mxGeometry x="380" y="400" width="140" height="30" as="geometry" />
        </mxCell>
        <mxCell id="dFMfm439-QXqqePCThza-10" style="edgeStyle=orthogonalEdgeStyle;rounded=0;orthogonalLoop=1;jettySize=auto;html=1;exitX=0.5;exitY=1;exitDx=0;exitDy=0;entryX=0;entryY=0.5;entryDx=0;entryDy=0;" parent="1" source="dFMfm439-QXqqePCThza-8" target="dFMfm439-QXqqePCThza-3" edge="1">
          <mxGeometry relative="1" as="geometry" />
        </mxCell>
        <mxCell id="dFMfm439-QXqqePCThza-8" value="posix" style="rounded=0;whiteSpace=wrap;html=1;" parent="1" vertex="1">
          <mxGeometry x="180" y="450" width="120" height="60" as="geometry" />
        </mxCell>
        <mxCell id="dFMfm439-QXqqePCThza-11" value="posix + rtld" style="text;html=1;whiteSpace=wrap;strokeColor=none;fillColor=none;align=center;verticalAlign=middle;rounded=0;" parent="1" vertex="1">
          <mxGeometry x="200" y="570" width="90" height="30" as="geometry" />
        </mxCell>
        <mxCell id="dFMfm439-QXqqePCThza-23" style="edgeStyle=orthogonalEdgeStyle;rounded=0;orthogonalLoop=1;jettySize=auto;html=1;exitX=1;exitY=0.5;exitDx=0;exitDy=0;entryX=0.5;entryY=0;entryDx=0;entryDy=0;" parent="1" source="dFMfm439-QXqqePCThza-13" target="dFMfm439-QXqqePCThza-16" edge="1">
          <mxGeometry relative="1" as="geometry" />
        </mxCell>
        <mxCell id="dFMfm439-QXqqePCThza-13" value="libkernel" style="rounded=0;whiteSpace=wrap;html=1;" parent="1" vertex="1">
          <mxGeometry x="610" y="330" width="120" height="60" as="geometry" />
        </mxCell>
        <mxCell id="dFMfm439-QXqqePCThza-29" style="edgeStyle=orthogonalEdgeStyle;rounded=0;orthogonalLoop=1;jettySize=auto;html=1;exitX=0.5;exitY=1;exitDx=0;exitDy=0;entryX=1;entryY=0.5;entryDx=0;entryDy=0;" parent="1" source="dFMfm439-QXqqePCThza-16" target="dFMfm439-QXqqePCThza-27" edge="1">
          <mxGeometry relative="1" as="geometry" />
        </mxCell>
        <mxCell id="dFMfm439-QXqqePCThza-16" value="bezos" style="rounded=0;whiteSpace=wrap;html=1;" parent="1" vertex="1">
          <mxGeometry x="690" y="600" width="120" height="60" as="geometry" />
        </mxCell>
        <mxCell id="dFMfm439-QXqqePCThza-18" value="ktest" style="rounded=0;whiteSpace=wrap;html=1;" parent="1" vertex="1">
          <mxGeometry x="510" y="510" width="120" height="60" as="geometry" />
        </mxCell>
        <mxCell id="dFMfm439-QXqqePCThza-19" style="edgeStyle=orthogonalEdgeStyle;rounded=0;orthogonalLoop=1;jettySize=auto;html=1;exitX=0.5;exitY=1;exitDx=0;exitDy=0;" parent="1" source="dFMfm439-QXqqePCThza-13" edge="1">
          <mxGeometry relative="1" as="geometry">
            <mxPoint x="600" y="509" as="targetPoint" />
          </mxGeometry>
        </mxCell>
        <mxCell id="dFMfm439-QXqqePCThza-20" value="Kernel code implementations" style="text;html=1;whiteSpace=wrap;strokeColor=none;fillColor=none;align=center;verticalAlign=middle;rounded=0;" parent="1" vertex="1">
          <mxGeometry x="620" y="465" width="140" height="30" as="geometry" />
        </mxCell>
        <mxCell id="dFMfm439-QXqqePCThza-28" style="edgeStyle=orthogonalEdgeStyle;rounded=0;orthogonalLoop=1;jettySize=auto;html=1;exitX=0.5;exitY=1;exitDx=0;exitDy=0;entryX=0;entryY=0.5;entryDx=0;entryDy=0;" parent="1" source="dFMfm439-QXqqePCThza-25" target="dFMfm439-QXqqePCThza-27" edge="1">
          <mxGeometry relative="1" as="geometry" />
        </mxCell>
        <mxCell id="dFMfm439-QXqqePCThza-25" value="initrd" style="rounded=0;whiteSpace=wrap;html=1;" parent="1" vertex="1">
          <mxGeometry x="320" y="660" width="120" height="60" as="geometry" />
        </mxCell>
        <mxCell id="dFMfm439-QXqqePCThza-27" value="image" style="rounded=0;whiteSpace=wrap;html=1;" parent="1" vertex="1">
          <mxGeometry x="510" y="760" width="120" height="60" as="geometry" />
        </mxCell>
        <mxCell id="dFMfm439-QXqqePCThza-30" value="Kernel binary" style="text;html=1;whiteSpace=wrap;strokeColor=none;fillColor=none;align=center;verticalAlign=middle;rounded=0;" parent="1" vertex="1">
          <mxGeometry x="670" y="750" width="60" height="30" as="geometry" />
        </mxCell>
        <mxCell id="dFMfm439-QXqqePCThza-31" value="init tarfs" style="text;html=1;whiteSpace=wrap;strokeColor=none;fillColor=none;align=center;verticalAlign=middle;rounded=0;" parent="1" vertex="1">
          <mxGeometry x="410" y="730" width="60" height="30" as="geometry" />
        </mxCell>
        <mxCell id="dFMfm439-QXqqePCThza-32" value="init programs + userspace" style="text;html=1;whiteSpace=wrap;strokeColor=none;fillColor=none;align=center;verticalAlign=middle;rounded=0;" parent="1" vertex="1">
          <mxGeometry x="400" y="610" width="120" height="30" as="geometry" />
        </mxCell>
        <mxCell id="dFMfm439-QXqqePCThza-33" value="Integration tests" style="text;html=1;whiteSpace=wrap;strokeColor=none;fillColor=none;align=center;verticalAlign=middle;rounded=0;" parent="1" vertex="1">
          <mxGeometry x="525" y="580" width="90" height="30" as="geometry" />
        </mxCell>
        <mxCell id="6AtPc1Cg2jlrS7tVkztT-2" style="edgeStyle=orthogonalEdgeStyle;rounded=0;orthogonalLoop=1;jettySize=auto;html=1;exitX=0.5;exitY=1;exitDx=0;exitDy=0;entryX=0.5;entryY=0;entryDx=0;entryDy=0;" edge="1" parent="1" source="6AtPc1Cg2jlrS7tVkztT-1" target="dFMfm439-QXqqePCThza-8">
          <mxGeometry relative="1" as="geometry" />
        </mxCell>
        <mxCell id="6AtPc1Cg2jlrS7tVkztT-1" value="posix-headers" style="rounded=0;whiteSpace=wrap;html=1;" vertex="1" parent="1">
          <mxGeometry x="180" y="200" width="120" height="60" as="geometry" />
        </mxCell>
      </root>
    </mxGraphModel>
  </diagram>
</mxfile>
